<?xml version="1.0" encoding="utf-8"?>
<!-- Generator: Adobe Illustrator 22.0.1, SVG Export Plug-In . SVG Version: 6.00 Build 0)  -->
<svg version="1.1" id="Layer_1" xmlns="http://www.w3.org/2000/svg" xmlns:xlink="http://www.w3.org/1999/xlink" x="0px" y="0px"
	 viewBox="0 0 1920 692" style="enable-background:new 0 0 1920 692;" xml:space="preserve">
<style type="text/css">
	.st0{fill:#FFCD00;}
	.st1{fill:#8E9C9C;}
</style>
<g>
	<path class="st0" d="M220.8,562.8c-32.3,0-61.3-7.6-86.7-22.9l16.5-33.3c10.3,6.4,21.1,11.4,32.3,15.1c11.3,3.7,23.5,5.5,36.8,5.5
		c19.8,0,35-5,45.6-15.1c10.5-10.1,15.8-25,15.8-44.7v-15.1c-8.1,10.5-17.5,19.1-28.3,25.7c-10.8,6.6-24.1,9.9-40.1,9.9
		c-11.5,0-22.5-2.1-33.1-6.2c-10.5-4.2-19.9-10.1-28.1-17.8c-8.2-7.7-14.8-17.2-19.7-28.5c-4.9-11.3-7.4-24-7.4-38.2v-0.7
		c0-14.2,2.4-27,7.4-38.4c4.9-11.4,11.5-21,19.7-28.7c8.2-7.7,17.6-13.7,28.3-17.8c10.7-4.2,21.6-6.2,32.9-6.2
		c16.4,0,30,3.3,40.6,9.7c10.7,6.5,19.8,14.3,27.4,23.3v-29h44.5v154.4c0,32.3-8.2,56.7-24.6,73.1c-8.8,8.8-19.9,15.4-33.3,19.7
		C254,560.7,238.5,562.8,220.8,562.8z M224.5,450.4c7.6,0,14.9-1.3,21.9-3.9c7-2.6,13-6.2,18.2-11c5.1-4.8,9.2-10.4,12.3-16.9
		c3.1-6.5,4.6-13.7,4.6-21.5v-0.7c0-8.1-1.5-15.4-4.6-21.9c-3.1-6.5-7.2-12.1-12.3-16.9c-5.1-4.8-11.2-8.5-18.2-11
		c-7-2.6-14.3-3.9-21.9-3.9c-7.8,0-15.1,1.3-21.7,3.9c-6.6,2.6-12.4,6.2-17.5,10.8c-5,4.7-8.9,10.2-11.8,16.7
		c-2.8,6.5-4.2,13.8-4.2,21.9v0.7c0,8.1,1.5,15.4,4.4,21.9c2.9,6.5,6.9,12.1,11.8,16.9c4.9,4.8,10.7,8.5,17.5,11
		C209.7,449.1,216.9,450.4,224.5,450.4z"/>
	<path class="st0" d="M425.4,507.3c-22,0-39-6.7-51-20.2c-12-13.5-18-31.6-18-54.4V309.2h44.8v110c0,15.2,3.6,26.8,10.7,35
		c7.2,8.2,17.3,12.3,30.4,12.3c12.9,0,23.3-4.2,31.3-12.7c8-8.4,12-20.2,12-35.4V309.2h44.8v194.1h-44.8v-30.5
		c-6.3,9.4-14.3,17.5-23.8,24.3C452.5,503.9,440.3,507.3,425.4,507.3z"/>
	<path class="st0" d="M564.5,309.2h44.8v29.7c3.2-4.4,6.6-8.7,10.3-12.6c3.7-4,7.9-7.5,12.6-10.8c4.8-3.2,10.1-5.8,16.1-7.6
		c6-1.9,12.6-2.8,20-2.8c13.9,0,25.7,3.1,35.4,9.5c9.7,6.3,17,14.7,22.2,25c7.9-10.4,17.1-18.7,27.8-25c10.7-6.3,23.4-9.5,38.1-9.5
		c21.4,0,38.1,6.4,50.1,19.3c12,12.9,18.1,31.2,18.1,55v123.9h-44.8v-110c0-15.4-3.4-27.1-10.2-35.2C798.1,350,788.5,346,776,346
		c-12.2,0-22.1,4.1-29.8,12.3c-7.7,8.2-11.5,20.1-11.5,35.8v109.3h-44.8V392.9c0-15.2-3.4-26.8-10.2-34.8
		c-6.8-8.1-16.5-12.1-28.9-12.1c-12.4,0-22.4,4.3-30,12.8c-7.6,8.6-11.3,20.4-11.3,35.6v108.9h-44.8V309.2z"/>
	<path class="st1" d="M1182.5,507.3c-22,0-39-6.7-51-20.2c-12-13.5-18-31.6-18-54.4V309.2h44.8v110c0,15.2,3.6,26.8,10.7,35
		s17.3,12.3,30.4,12.3c12.9,0,23.3-4.2,31.3-12.7c8-8.4,12-20.2,12-35.4V309.2h44.8v194.1H1243v-30.5c-6.3,9.4-14.3,17.5-23.8,24.3
		C1209.7,503.9,1197.4,507.3,1182.5,507.3z"/>
	<path class="st1" d="M1576.8,347.5v-37.7c-8.2-3-17.4-4.6-27.8-4.6c-14.7,0-27.5,3.1-38.1,9.5c-10.7,6.3-20,14.7-27.8,25
		c-5.1-10.4-12.5-18.7-22.2-25c-9.7-6.3-21.4-9.5-35.4-9.5c-7.3,0-14,0.9-20,2.8c-6,1.9-11.4,4.4-16.1,7.6c-4.8,3.2-9,6.8-12.6,10.8
		c-3.7,4-7.1,8.2-10.3,12.6v-29.7h-44.8v194.1h44.8V394.4c0-15.1,3.8-27,11.3-35.6c7.6-8.6,17.6-12.8,30-12.8
		c12.4,0,22.1,4,28.9,12.1c6.8,8.1,10.2,19.7,10.2,34.8v110.4h44.8V394c0-15.6,3.8-27.6,11.5-35.8s17.6-12.3,29.8-12.3
		c12.4,0,22.1,4,28.9,12.1c6.8,8.1,10.2,19.8,10.2,35.2v110h44.8V379.4c0-12.1-1.6-22.7-4.7-32H1576.8z"/>
	<path class="st1" d="M1758.4,166.3v65h-65.1v-65H1758.4 M1795.5,129.2h-139.3v139.3h139.3V129.2L1795.5,129.2z"/>
	<rect x="1591.4" y="268" class="st0" width="65" height="64.9"/>
	<path class="st1" d="M978,562.8c-32.3,0-61.3-7.6-86.7-22.9l16.5-33.3c10.3,6.4,21.1,11.4,32.3,15.1c11.3,3.7,23.5,5.5,36.8,5.5
		c19.8,0,35-5,45.6-15.1c10.5-10.1,15.8-25,15.8-44.7v-15.1c-8.1,10.5-17.5,19.1-28.3,25.7c-10.8,6.6-24.1,9.9-40.1,9.9
		c-11.5,0-22.5-2.1-33.1-6.2c-10.5-4.2-19.9-10.1-28.1-17.8c-8.2-7.7-14.8-17.2-19.7-28.5c-4.9-11.3-7.4-24-7.4-38.2v-0.7
		c0-14.2,2.4-27,7.4-38.4c4.9-11.4,11.5-21,19.7-28.7c8.2-7.7,17.6-13.7,28.3-17.8s21.6-6.2,32.9-6.2c16.4,0,30,3.3,40.6,9.7
		c10.7,6.5,19.8,14.3,27.4,23.3v-29h44.5v154.4c0,32.3-8.2,56.7-24.6,73.1c-8.8,8.8-19.9,15.4-33.3,19.7
		C1011.1,560.7,995.6,562.8,978,562.8z M978,562.8c-32.3,0-61.3-7.6-86.7-22.9l16.5-33.3c10.3,6.4,21.1,11.4,32.3,15.1
		c11.3,3.7,23.5,5.5,36.8,5.5c19.8,0,35-5,45.6-15.1c10.5-10.1,15.8-25,15.8-44.7v-15.1c-8.1,10.5-17.5,19.1-28.3,25.7
		c-10.8,6.6-24.1,9.9-40.1,9.9c-11.5,0-22.5-2.1-33.1-6.2c-10.5-4.2-19.9-10.1-28.1-17.8c-8.2-7.7-14.8-17.2-19.7-28.5
		c-4.9-11.3-7.4-24-7.4-38.2v-0.7c0-14.2,2.4-27,7.4-38.4c4.9-11.4,11.5-21,19.7-28.7c8.2-7.7,17.6-13.7,28.3-17.8
		s21.6-6.2,32.9-6.2c16.4,0,30,3.3,40.6,9.7c10.7,6.5,19.8,14.3,27.4,23.3v-29h44.5v154.4c0,32.3-8.2,56.7-24.6,73.1
		c-8.8,8.8-19.9,15.4-33.3,19.7C1011.1,560.7,995.6,562.8,978,562.8z M981.7,450.4c7.6,0,14.9-1.3,21.9-3.9c7-2.6,13-6.2,18.2-11
		c5.1-4.8,9.2-10.4,12.3-16.9c3.1-6.5,4.6-13.7,4.6-21.5v-0.7c0-8.1-1.5-15.4-4.6-21.9c-3.1-6.5-7.2-12.1-12.3-16.9
		c-5.1-4.8-11.2-8.5-18.2-11c-7-2.6-14.3-3.9-21.9-3.9c-7.8,0-15.1,1.3-21.7,3.9c-6.6,2.6-12.4,6.2-17.5,10.8
		c-5,4.7-8.9,10.2-11.8,16.7c-2.8,6.5-4.2,13.8-4.2,21.9v0.7c0,8.1,1.5,15.4,4.4,21.9c2.9,6.5,6.9,12.1,11.8,16.9
		c4.9,4.8,10.7,8.5,17.5,11C966.9,449.1,974.1,450.4,981.7,450.4z M981.7,450.4c7.6,0,14.9-1.3,21.9-3.9c7-2.6,13-6.2,18.2-11
		c5.1-4.8,9.2-10.4,12.3-16.9c3.1-6.5,4.6-13.7,4.6-21.5v-0.7c0-8.1-1.5-15.4-4.6-21.9c-3.1-6.5-7.2-12.1-12.3-16.9
		c-5.1-4.8-11.2-8.5-18.2-11c-7-2.6-14.3-3.9-21.9-3.9c-7.8,0-15.1,1.3-21.7,3.9c-6.6,2.6-12.4,6.2-17.5,10.8
		c-5,4.7-8.9,10.2-11.8,16.7c-2.8,6.5-4.2,13.8-4.2,21.9v0.7c0,8.1,1.5,15.4,4.4,21.9c2.9,6.5,6.9,12.1,11.8,16.9
		c4.9,4.8,10.7,8.5,17.5,11C966.9,449.1,974.1,450.4,981.7,450.4z"/>
</g>
</svg>
